<?xml version="1.0" encoding="UTF-8"?>
<svg id="Layer_2" data-name="Layer 2" xmlns="http://www.w3.org/2000/svg" viewBox="0 0 20.96 20.96">
  <defs>
    <style>
      .cls-1 {
        fill: #cfac7b;
      }

      .cls-1, .cls-2 {
        stroke-width: 0px;
      }

      .cls-2 {
        fill: #80441d;
        fill-rule: evenodd;
      }
    </style>
  </defs>
  <g id="Layer_1-2" data-name="Layer 1">
    <g>
      <rect class="cls-1" width="20.96" height="20.96" rx="4.93" ry="4.93"/>
      <g>
        <path class="cls-2" d="m5.95,11.43h-.03s0,.22,0,.22h.02c.27,0,.52.04.75.15.23.11.41.26.55.46.14.2.21.43.22.69,0,.26-.06.5-.19.7-.13.21-.31.37-.53.49-.23.12-.47.18-.75.19h-.02s0,.23,0,.23l1.56,1.84h0s.04.04.08.09c.04.05.08.1.12.15.04.05.05.1.05.14,0,.09-.08.16-.24.21l1.94-.04c-.19-.05-.38-.14-.58-.27-.2-.13-.37-.28-.53-.44l-1.53-1.81c.47-.12.85-.32,1.14-.59.29-.27.43-.57.42-.9,0-.28-.12-.54-.34-.78-.22-.24-.52-.42-.9-.55-.35-.12-.73-.18-1.14-.18-.03,0-.06,0-.09,0Z"/>
        <path class="cls-2" d="m15.1,2.87c-.81,0-1.63,0-2.44.05-.97.06-1.9.26-2.77.72-.6.31-1.11.74-1.47,1.32-.38.6-.53,1.27-.55,1.98-.02.88.16,1.71.69,2.44.09.13.2.25.28.36-1.08-.01-2.17-.03-3.27-.04,0-2.28,0-4.55,0-6.81-.7,0-1.38,0-2.1,0,0,.16.01.33.01.5,0,1.45,0,2.89,0,4.34,0,1.18.93,2.11,2.08,2.11.67,0,1.34-.02,2,0,.38.01.76.05,1.13.14.81.19,1.41.67,1.77,1.44.22.48.34.98.38,1.5.08.93.09,1.85-.14,2.76-.19.76-.58,1.39-1.27,1.8-.51.3-1.07.44-1.66.47-.69.03-1.39.02-2.08.03-.11,0-.15-.03-.15-.15,0-1.51.01-3.02,0-4.52,0-1.09-.84-1.98-1.93-2.07-.05,0-.1,0-.14,0,0,2.29,0,4.56,0,6.88.04,0,.08-.03.13-.03.96,0,1.91,0,2.87,0,.86,0,1.73,0,2.59-.14.97-.16,1.89-.45,2.68-1.06.49-.38.85-.87,1.08-1.45.22-.56.28-1.14.26-1.73-.03-.79-.24-1.51-.71-2.16-.09-.12-.19-.23-.3-.37.72.08,1.42.07,2.12.07.39,0,.79,0,1.18,0,0,2.28,0,4.56-.01,6.82.7,0,1.38,0,2.08,0,0-.01,0-.03,0-.05,0-1.61.01-3.22,0-4.84,0-1.14-.96-2.06-2.1-2.05-.66,0-1.32.01-1.98,0-.38-.01-.76-.05-1.13-.14-.81-.19-1.42-.67-1.78-1.43-.25-.54-.37-1.12-.4-1.71-.06-.88-.06-1.76.17-2.63.18-.68.53-1.25,1.12-1.65.47-.32.99-.5,1.55-.53.81-.05,1.62-.04,2.43-.05,0,0,.02,0,.04.01,0,.05,0,.1,0,.15,0,1.48-.01,2.96,0,4.44,0,.91.43,1.58,1.26,1.96.25.12.53.17.79.17,0-2.29,0-4.57,0-6.85-.02,0-.06,0-.1,0-.46,0-.91,0-1.37,0-.3,0-.6,0-.9,0Z"/>
      </g>
    </g>
  </g>
</svg>